<svg width="56" height="32" viewBox="0 0 56 32" fill="none" xmlns="http://www.w3.org/2000/svg">
<path d="M0 16C0 7.16344 7.16344 0 16 0H40C48.8366 0 56 7.16344 56 16C56 24.8366 48.8366 32 40 32H16C7.16344 32 0 24.8366 0 16Z" fill="#DBDBDB"/>
<path d="M21.3484 13.3182C21.8731 13.3182 22.2984 12.8929 22.2984 12.3682C22.2984 11.8435 21.8731 11.4182 21.3484 11.4182C20.8238 11.4182 20.3984 11.8435 20.3984 12.3682C20.3984 12.8929 20.8238 13.3182 21.3484 13.3182Z" fill="black"/>
<path d="M32.5493 9.72562H31.5493C31.5493 10.2779 31.997 10.7256 32.5493 10.7256V9.72562ZM23.4507 9.72562V10.7256C24.003 10.7256 24.4507 10.2779 24.4507 9.72562H23.4507ZM30.325 15.6932C30.325 16.9772 29.2841 18.0182 28 18.0182V20.0182C30.3886 20.0182 32.325 18.0818 32.325 15.6932H30.325ZM28 18.0182C26.7159 18.0182 25.675 16.9772 25.675 15.6932H23.675C23.675 18.0818 25.6114 20.0182 28 20.0182V18.0182ZM25.675 15.6932C25.675 14.4091 26.7159 13.3682 28 13.3682V11.3682C25.6114 11.3682 23.675 13.3045 23.675 15.6932H25.675ZM28 13.3682C29.2841 13.3682 30.325 14.4091 30.325 15.6932H32.325C32.325 13.3045 30.3886 11.3682 28 11.3682V13.3682ZM35.8944 8.72562H32.5493V10.7256H35.8944V8.72562ZM33.5493 9.72562V9.19875H31.5493V9.72562H33.5493ZM33.5493 9.19875C33.5493 7.75711 32.3695 6.61816 30.9437 6.61816V8.61816C31.2947 8.61816 31.5493 8.89121 31.5493 9.19875H33.5493ZM30.9437 6.61816H25.0563V8.61816H30.9437V6.61816ZM25.0563 6.61816C23.6305 6.61816 22.4507 7.75711 22.4507 9.19875H24.4507C24.4507 8.89121 24.7053 8.61816 25.0563 8.61816V6.61816ZM22.4507 9.19875V9.72562H24.4507V9.19875H22.4507ZM23.4507 8.72562H20.1056V10.7256H23.4507V8.72562ZM20.1056 8.72562C18.6798 8.72562 17.5 9.86457 17.5 11.3062H19.5C19.5 10.9987 19.7546 10.7256 20.1056 10.7256V8.72562ZM17.5 11.3062V21.2376H19.5V11.3062H17.5ZM17.5 21.2376C17.5 22.6792 18.6798 23.8182 20.1056 23.8182V21.8182C19.7546 21.8182 19.5 21.5451 19.5 21.2376H17.5ZM20.1056 23.8182H35.8944V21.8182H20.1056V23.8182ZM35.8944 23.8182C37.3202 23.8182 38.5 22.6792 38.5 21.2376H36.5C36.5 21.5451 36.2454 21.8182 35.8944 21.8182V23.8182ZM38.5 21.2376V11.3062H36.5V21.2376H38.5ZM38.5 11.3062C38.5 9.86457 37.3202 8.72562 35.8944 8.72562V10.7256C36.2454 10.7256 36.5 10.9987 36.5 11.3062H38.5Z" fill="black"/>
</svg>
